<mxfile host="app.diagrams.net" modified="2021-01-16T16:20:48.466Z" agent="5.0 (Windows NT 10.0; Win64; x64) AppleWebKit/537.36 (KHTML, like Gecko) Chrome/87.0.4280.141 Safari/537.36" etag="aEGFNu-ZZNMjLCi18gZg" version="14.0.1" type="github">
  <diagram id="t_FyocFmr-CwFCIweFuk" name="Page-1">
    <mxGraphModel dx="1102" dy="450" grid="1" gridSize="10" guides="1" tooltips="1" connect="1" arrows="1" fold="1" page="1" pageScale="1" pageWidth="827" pageHeight="1169" math="0" shadow="0">
      <root>
        <mxCell id="0" />
        <mxCell id="1" parent="0" />
        <mxCell id="wjPEngPkn21x89bXftg2-1" style="edgeStyle=orthogonalEdgeStyle;rounded=0;orthogonalLoop=1;jettySize=auto;html=1;exitX=0.5;exitY=1;exitDx=0;exitDy=0;endArrow=none;endFill=0;" edge="1" parent="1" source="wjPEngPkn21x89bXftg2-2">
          <mxGeometry relative="1" as="geometry">
            <mxPoint x="620" y="720" as="targetPoint" />
            <Array as="points">
              <mxPoint x="620" y="730" />
              <mxPoint x="620" y="730" />
            </Array>
          </mxGeometry>
        </mxCell>
        <mxCell id="wjPEngPkn21x89bXftg2-2" value="Base de datos" style="rounded=0;whiteSpace=wrap;html=1;" vertex="1" parent="1">
          <mxGeometry x="560" y="120" width="120" height="60" as="geometry" />
        </mxCell>
        <mxCell id="wjPEngPkn21x89bXftg2-3" style="edgeStyle=orthogonalEdgeStyle;rounded=0;orthogonalLoop=1;jettySize=auto;html=1;exitX=0.5;exitY=1;exitDx=0;exitDy=0;endArrow=none;endFill=0;" edge="1" parent="1" source="wjPEngPkn21x89bXftg2-4">
          <mxGeometry relative="1" as="geometry">
            <mxPoint x="380" y="730" as="targetPoint" />
          </mxGeometry>
        </mxCell>
        <mxCell id="wjPEngPkn21x89bXftg2-4" value="Interfaz de usuario" style="rounded=0;whiteSpace=wrap;html=1;" vertex="1" parent="1">
          <mxGeometry x="320" y="120" width="120" height="60" as="geometry" />
        </mxCell>
        <mxCell id="wjPEngPkn21x89bXftg2-5" style="edgeStyle=orthogonalEdgeStyle;rounded=0;orthogonalLoop=1;jettySize=auto;html=1;exitX=0.5;exitY=1;exitDx=0;exitDy=0;endArrow=none;endFill=0;" edge="1" parent="1" source="wjPEngPkn21x89bXftg2-6">
          <mxGeometry relative="1" as="geometry">
            <mxPoint x="140" y="730" as="targetPoint" />
          </mxGeometry>
        </mxCell>
        <mxCell id="wjPEngPkn21x89bXftg2-6" value="Jefe de Proyecto" style="rounded=0;whiteSpace=wrap;html=1;" vertex="1" parent="1">
          <mxGeometry x="80" y="120" width="120" height="60" as="geometry" />
        </mxCell>
        <mxCell id="wjPEngPkn21x89bXftg2-7" value="" style="endArrow=classic;html=1;" edge="1" parent="1">
          <mxGeometry width="50" height="50" relative="1" as="geometry">
            <mxPoint x="140" y="230" as="sourcePoint" />
            <mxPoint x="380" y="230" as="targetPoint" />
          </mxGeometry>
        </mxCell>
        <mxCell id="wjPEngPkn21x89bXftg2-8" value="Accede a la lista de proyectos" style="text;html=1;strokeColor=none;fillColor=none;align=center;verticalAlign=middle;whiteSpace=wrap;rounded=0;" vertex="1" parent="1">
          <mxGeometry x="160" y="210" width="200" height="20" as="geometry" />
        </mxCell>
        <mxCell id="wjPEngPkn21x89bXftg2-9" value="" style="endArrow=classic;html=1;" edge="1" parent="1">
          <mxGeometry width="50" height="50" relative="1" as="geometry">
            <mxPoint x="380" y="260" as="sourcePoint" />
            <mxPoint x="620" y="260" as="targetPoint" />
          </mxGeometry>
        </mxCell>
        <mxCell id="wjPEngPkn21x89bXftg2-10" value="Solicita los proyectos" style="text;html=1;strokeColor=none;fillColor=none;align=center;verticalAlign=middle;whiteSpace=wrap;rounded=0;" vertex="1" parent="1">
          <mxGeometry x="400" y="240" width="200" height="20" as="geometry" />
        </mxCell>
        <mxCell id="wjPEngPkn21x89bXftg2-11" value="" style="endArrow=none;dashed=1;html=1;dashPattern=1 3;strokeWidth=2;startArrow=classic;startFill=1;" edge="1" parent="1">
          <mxGeometry width="50" height="50" relative="1" as="geometry">
            <mxPoint x="380" y="300" as="sourcePoint" />
            <mxPoint x="620" y="300" as="targetPoint" />
          </mxGeometry>
        </mxCell>
        <mxCell id="wjPEngPkn21x89bXftg2-12" value="Devuelve los proyectos" style="text;html=1;strokeColor=none;fillColor=none;align=center;verticalAlign=middle;whiteSpace=wrap;rounded=0;" vertex="1" parent="1">
          <mxGeometry x="400" y="280" width="200" height="20" as="geometry" />
        </mxCell>
        <mxCell id="wjPEngPkn21x89bXftg2-13" value="" style="endArrow=none;dashed=1;html=1;dashPattern=1 3;strokeWidth=2;startArrow=classic;startFill=1;" edge="1" parent="1">
          <mxGeometry width="50" height="50" relative="1" as="geometry">
            <mxPoint x="140" y="330" as="sourcePoint" />
            <mxPoint x="380" y="330" as="targetPoint" />
          </mxGeometry>
        </mxCell>
        <mxCell id="wjPEngPkn21x89bXftg2-14" value="Imprime la lista de proyectos" style="text;html=1;strokeColor=none;fillColor=none;align=center;verticalAlign=middle;whiteSpace=wrap;rounded=0;" vertex="1" parent="1">
          <mxGeometry x="160" y="310" width="200" height="20" as="geometry" />
        </mxCell>
        <mxCell id="wjPEngPkn21x89bXftg2-15" value="" style="endArrow=classic;html=1;" edge="1" parent="1">
          <mxGeometry width="50" height="50" relative="1" as="geometry">
            <mxPoint x="140" y="380" as="sourcePoint" />
            <mxPoint x="380" y="380" as="targetPoint" />
          </mxGeometry>
        </mxCell>
        <mxCell id="wjPEngPkn21x89bXftg2-16" value="Selecciona un proyecto de la lista" style="text;html=1;strokeColor=none;fillColor=none;align=center;verticalAlign=middle;whiteSpace=wrap;rounded=0;" vertex="1" parent="1">
          <mxGeometry x="160" y="360" width="200" height="20" as="geometry" />
        </mxCell>
        <mxCell id="wjPEngPkn21x89bXftg2-17" value="" style="endArrow=classic;html=1;" edge="1" parent="1">
          <mxGeometry width="50" height="50" relative="1" as="geometry">
            <mxPoint x="380" y="599" as="sourcePoint" />
            <mxPoint x="620" y="599" as="targetPoint" />
          </mxGeometry>
        </mxCell>
        <mxCell id="wjPEngPkn21x89bXftg2-18" value="A침ade integrante al laboratorio" style="text;html=1;strokeColor=none;fillColor=none;align=center;verticalAlign=middle;whiteSpace=wrap;rounded=0;" vertex="1" parent="1">
          <mxGeometry x="400" y="569" width="200" height="20" as="geometry" />
        </mxCell>
        <mxCell id="wjPEngPkn21x89bXftg2-19" value="" style="endArrow=none;dashed=1;html=1;dashPattern=1 3;strokeWidth=2;startArrow=classic;startFill=1;" edge="1" parent="1">
          <mxGeometry width="50" height="50" relative="1" as="geometry">
            <mxPoint x="380" y="645" as="sourcePoint" />
            <mxPoint x="620" y="645" as="targetPoint" />
          </mxGeometry>
        </mxCell>
        <mxCell id="wjPEngPkn21x89bXftg2-20" value="Devuelve detalles del proyecto con el integrante a침adido" style="text;html=1;strokeColor=none;fillColor=none;align=center;verticalAlign=middle;whiteSpace=wrap;rounded=0;" vertex="1" parent="1">
          <mxGeometry x="400" y="620" width="200" height="20" as="geometry" />
        </mxCell>
        <mxCell id="wjPEngPkn21x89bXftg2-21" value="" style="endArrow=none;dashed=1;html=1;dashPattern=1 3;strokeWidth=2;startArrow=classic;startFill=1;" edge="1" parent="1">
          <mxGeometry width="50" height="50" relative="1" as="geometry">
            <mxPoint x="140" y="689" as="sourcePoint" />
            <mxPoint x="380" y="689" as="targetPoint" />
          </mxGeometry>
        </mxCell>
        <mxCell id="wjPEngPkn21x89bXftg2-22" value="Imprime detalles del proyecto" style="text;html=1;strokeColor=none;fillColor=none;align=center;verticalAlign=middle;whiteSpace=wrap;rounded=0;" vertex="1" parent="1">
          <mxGeometry x="160" y="660" width="200" height="20" as="geometry" />
        </mxCell>
        <mxCell id="wjPEngPkn21x89bXftg2-23" value="" style="endArrow=none;dashed=1;html=1;dashPattern=1 3;strokeWidth=2;startArrow=classic;startFill=1;" edge="1" parent="1">
          <mxGeometry width="50" height="50" relative="1" as="geometry">
            <mxPoint x="380" y="466" as="sourcePoint" />
            <mxPoint x="620" y="466" as="targetPoint" />
          </mxGeometry>
        </mxCell>
        <mxCell id="wjPEngPkn21x89bXftg2-24" value="Devuelve detalles del proyecto" style="text;html=1;strokeColor=none;fillColor=none;align=center;verticalAlign=middle;whiteSpace=wrap;rounded=0;" vertex="1" parent="1">
          <mxGeometry x="400" y="440" width="200" height="20" as="geometry" />
        </mxCell>
        <mxCell id="wjPEngPkn21x89bXftg2-25" value="" style="endArrow=classic;html=1;" edge="1" parent="1">
          <mxGeometry width="50" height="50" relative="1" as="geometry">
            <mxPoint x="140" y="560" as="sourcePoint" />
            <mxPoint x="380" y="560" as="targetPoint" />
          </mxGeometry>
        </mxCell>
        <mxCell id="wjPEngPkn21x89bXftg2-26" value="Escribe el nombre del integrante y pulsa el bot칩n de a침adir" style="text;html=1;strokeColor=none;fillColor=none;align=center;verticalAlign=middle;whiteSpace=wrap;rounded=0;" vertex="1" parent="1">
          <mxGeometry x="160" y="534" width="200" height="20" as="geometry" />
        </mxCell>
        <mxCell id="wjPEngPkn21x89bXftg2-27" value="" style="endArrow=classic;html=1;" edge="1" parent="1">
          <mxGeometry width="50" height="50" relative="1" as="geometry">
            <mxPoint x="380" y="420" as="sourcePoint" />
            <mxPoint x="620" y="420" as="targetPoint" />
          </mxGeometry>
        </mxCell>
        <mxCell id="wjPEngPkn21x89bXftg2-28" value="Consulta el proyecto seleccionado" style="text;html=1;strokeColor=none;fillColor=none;align=center;verticalAlign=middle;whiteSpace=wrap;rounded=0;" vertex="1" parent="1">
          <mxGeometry x="400" y="400" width="200" height="20" as="geometry" />
        </mxCell>
        <mxCell id="wjPEngPkn21x89bXftg2-29" value="" style="endArrow=none;dashed=1;html=1;dashPattern=1 3;strokeWidth=2;startArrow=classic;startFill=1;" edge="1" parent="1">
          <mxGeometry width="50" height="50" relative="1" as="geometry">
            <mxPoint x="140" y="516" as="sourcePoint" />
            <mxPoint x="380" y="516" as="targetPoint" />
          </mxGeometry>
        </mxCell>
        <mxCell id="wjPEngPkn21x89bXftg2-30" value="Imprime los detalles del proyecto" style="text;html=1;strokeColor=none;fillColor=none;align=center;verticalAlign=middle;whiteSpace=wrap;rounded=0;" vertex="1" parent="1">
          <mxGeometry x="160" y="490" width="200" height="20" as="geometry" />
        </mxCell>
      </root>
    </mxGraphModel>
  </diagram>
</mxfile>
